<svg xmlns="http://www.w3.org/2000/svg" width="28" height="28" viewBox="0 0 28 28">
  <g id="bx-face" transform="translate(-2 -2)">
    <path id="Trazado_1" data-name="Trazado 1" d="M16,2A14,14,0,1,0,30,16,14.016,14.016,0,0,0,16,2Zm0,2.8a11.206,11.206,0,0,1,10.156,6.507,10.92,10.92,0,0,1-1.253-.7,10.967,10.967,0,0,0-2.044-1.081A8.648,8.648,0,0,0,19.731,9a8.678,8.678,0,0,0-3.128.528,11.271,11.271,0,0,0-2.061,1.093A8.523,8.523,0,0,1,13,11.453a5.874,5.874,0,0,1-2.136.347,5.858,5.858,0,0,1-2.134-.347,8.334,8.334,0,0,1-1.548-.837c-.225-.141-.476-.291-.728-.438A11.189,11.189,0,0,1,16,4.8Zm0,22.4A11.192,11.192,0,0,1,5.287,12.742c.132.081.259.154.4.242a10.93,10.93,0,0,0,2.052,1.086,8.64,8.64,0,0,0,3.126.529,8.7,8.7,0,0,0,3.129-.528,11.271,11.271,0,0,0,2.061-1.093,8.618,8.618,0,0,1,1.544-.833,5.892,5.892,0,0,1,2.135-.346,5.861,5.861,0,0,1,2.135.347,8.407,8.407,0,0,1,1.56.843,11.05,11.05,0,0,0,2.044,1.082,7.88,7.88,0,0,0,1.614.407A11.115,11.115,0,0,1,16,27.2Z" fill="#3c3c3c"/>
    <circle id="Elipse_1" data-name="Elipse 1" cx="1.5" cy="1.5" r="1.5" transform="translate(9.353 16.706)" fill="#3c3c3c"/>
    <circle id="Elipse_2" data-name="Elipse 2" cx="1.5" cy="1.5" r="1.5" transform="translate(19.647 16.706)" fill="#3c3c3c"/>
  </g>
</svg>
